<?xml version="1.0" encoding="UTF-8" standalone="no"?>
<svg
   xmlns:dc="http://purl.org/dc/elements/1.1/"
   xmlns:cc="http://creativecommons.org/ns#"
   xmlns:rdf="http://www.w3.org/1999/02/22-rdf-syntax-ns#"
   xmlns:svg="http://www.w3.org/2000/svg"
   xmlns="http://www.w3.org/2000/svg"
   xmlns:sodipodi="http://sodipodi.sourceforge.net/DTD/sodipodi-0.dtd"
   xmlns:inkscape="http://www.inkscape.org/namespaces/inkscape"
   version="1.1"
   id="svg78"
   width="395.61899"
   height="509.47147"
   viewBox="0 0 395.61899 509.47147"
   sodipodi:docname="e-byte-white.svg"
   inkscape:version="1.0beta2 (2b71d25, 2019-12-03)">
  <metadata
     id="metadata84">
    <rdf:RDF>
      <cc:Work
         rdf:about="">
        <dc:format>image/svg+xml</dc:format>
        <dc:type
           rdf:resource="http://purl.org/dc/dcmitype/StillImage" />
        <dc:title></dc:title>
      </cc:Work>
    </rdf:RDF>
  </metadata>
  <defs
     id="defs82">
    <rect
       x="9.9637604"
       y="492.97104"
       width="393.56641"
       height="122.98731"
       id="rect1337" />
  </defs>
  <sodipodi:namedview
     pagecolor="#ffffff"
     bordercolor="#666666"
     inkscape:document-rotation="0"
     borderopacity="1"
     objecttolerance="10"
     gridtolerance="10"
     guidetolerance="10"
     inkscape:pageopacity="0"
     inkscape:pageshadow="2"
     inkscape:window-width="1920"
     inkscape:window-height="1035"
     id="namedview80"
     showgrid="false"
     fit-margin-top="0"
     fit-margin-left="0"
     fit-margin-right="0"
     fit-margin-bottom="0"
     inkscape:pagecheckerboard="true"
     showborder="false"
     showguides="false"
     inkscape:zoom="0.73014923"
     inkscape:cx="750.07487"
     inkscape:cy="281.68911"
     inkscape:window-x="0"
     inkscape:window-y="23"
     inkscape:window-maximized="1"
     inkscape:current-layer="g931" />
  <g
     inkscape:groupmode="layer"
     inkscape:label="Image"
     id="g86"
     transform="translate(-223.4851,657.20644)">
    <g
       id="g931"
       transform="translate(215.52134,-750.17747)"
       clip-path="none">
      <path
         style="fill:#ffffff"
         d="m 9.9637599,293.97103 c 0,-132 -0.33668,-199.000004 -1,-199.000004 -0.55,0 -1,-0.45 -1,-1 0,-0.66331 66.7023401,-1 198.1070001,-1 180.23682,0 198.05223,0.14268 197.5,1.58178 -0.33385,0.86999 -0.60699,90.869994 -0.60699,200.000014 v 198.41821 h -196.5 H 9.9637599 Z M 181.96377,397.81453 c 15.125,0.0335 29.75,0.19492 32.5,0.3587 l 5,0.2978 0.27504,-15.68117 0.27505,-15.68118 5.22495,-0.58347 c 2.87373,-0.32091 16.47496,-1.48185 30.22496,-2.57986 13.75,-1.09802 38.725,-3.36848 55.5,-5.04548 16.775,-1.677 33.75506,-3.02924 37.73346,-3.00499 6.62945,0.0404 7.51657,-0.20448 10.62373,-2.9326 4.06765,-3.57145 7.87729,-11.9116 7.45091,-16.3117 l -0.3081,-3.17955 -15.5,0.30755 c -8.525,0.16915 -25.4,1.18015 -37.5,2.24667 -33.25275,2.93094 -59.48845,4.77853 -74.5996,5.2535 l -13.5996,0.42745 -0.6504,-15.02658 c -0.76257,-17.61811 -0.83897,-29.70859 -0.18772,-29.70859 1.02252,0 106.30124,-13.01854 109.78732,-13.57606 l 3.75,-0.59974 V 272.227 261.65877 l -14.96996,0.64795 c -8.23347,0.35637 -29.05048,2.43286 -46.26001,4.61443 -17.20953,2.18157 -36.83383,4.27979 -43.60955,4.66272 l -12.3195,0.69623 0.44382,-29.90454 c 0.27418,-18.47456 0.90135,-31.6849 1.64088,-34.56256 l 1.19706,-4.65803 6.18863,-1.05416 c 9.26018,-1.57736 36.54172,-2.98081 70.19636,-3.61114 16.50426,-0.30911 31.35426,-0.92108 33,-1.35992 l 2.99227,-0.79791 0.28688,-9.13193 0.28689,-9.13193 -3.96401,-1.06739 c -9.93754,-2.6759 -22.28823,-3.16443 -72.10976,-2.85225 -28.325,0.17748 -54.3125,-0.059 -57.75,-0.5255 l -6.25,-0.84818 v 16.03079 c 0,18.62069 1.52834,16.695 -14,17.63985 -11.72581,0.71348 -79.37161,6.73497 -99.5,8.857 -7.15,0.75378 -15.09021,1.17106 -17.64491,0.92729 -4.22983,-0.40362 -5.00656,-0.11652 -8.69159,3.21268 -4.58666,4.14378 -7.46897,10.58581 -6.98871,15.61994 l 0.3252,3.40882 16.28858,-0.19215 c 8.95871,-0.10568 26.05871,-1.12003 38,-2.25412 30.98659,-2.94287 61.90721,-5.02282 74.91612,-5.03943 l 11.20468,-0.0143 0.49247,3.25 c 0.27086,1.7875 0.74441,11.63683 1.05234,21.88739 l 0.55986,18.63739 -3.25702,0.58557 c -1.79136,0.32207 -27.10702,3.57433 -56.25702,7.22725 -29.15,3.65293 -53.5625,7.0952 -54.25,7.64949 -1.79894,1.45038 -1.71447,18.13255 0.0994,19.63796 1.79414,1.489 25.76468,-0.11326 51.15056,-3.41906 23.79384,-3.09848 42.2146,-5.09486 54.59596,-5.91692 l 9.59595,-0.63713 0.64887,9.79903 c 1.19373,18.02732 0.75275,40.16033 -0.99513,49.94594 -1.53359,8.58588 -1.84383,9.30345 -4.25,9.83004 -7.43025,1.6261 -22.22579,2.53671 -57.09565,3.51402 -21.175,0.59348 -41.7625,1.32669 -45.75,1.62936 l -7.25,0.55031 v 9.3795 c 0,11.04013 -0.27143,10.74861 11.51888,12.37123 11.90239,1.63803 17.87724,1.82849 41.48112,1.3223 11.825,-0.2536 33.875,-0.43367 49,-0.40017 z"
         id="path933"
         inkscape:connector-curvature="0"
         sodipodi:nodetypes="sssscscccscccccsssccccssscssccccssscsccsscccccsscsssccscssscssccsscsscsscsscscscc" />
      <text
         xml:space="preserve"
         id="text1335"
         style="font-size:96px;line-height:1.25;font-family:ProximaNova-Medium;-inkscape-font-specification:'ProximaNova-Medium Normal';text-align:center;white-space:pre;shape-inside:url(#rect1337);fill:#ffffff;"><tspan
           sodipodi:role="line"
           x="45.683594"
           y="583.13"><tspan
             style="font-style:normal;font-variant:normal;font-weight:normal;font-stretch:normal;font-family:sans-serif;-inkscape-font-specification:sans-serif;fill:#ffffff">E-Byte</tspan></tspan></text>
    </g>
  </g>
</svg>
